# xmcd
#
# Track frame offsets:
#	150
#	26747
#	45876
#	68717
#	88067
#	110224
#	128761
#	142363
#	163134
#	184307
#	210176
#	231879
#
# Disc length: 3495 seconds
#
# Revision: 1
# Processed by: cddbd v1.5.2PL0 Copyright (c) Steve Scherf et al.
# Submitted via: EasyCDDAExtractor 12.0.1.1
#
DISCID=ac0da50c
DTITLE=Black Whistle Singer - Remembering Friends
DYEAR=1900
DGENRE=Native American
TTITLE0=Back In The Groove
TTITLE1=Keepin' It Real
TTITLE2=Happy Days
TTITLE3=Crow Boy Up
TTITLE4=Mellow Groovin'
TTITLE5=LaCrosse
TTITLE6=Da It'Chik Strut
TTITLE7=Apsaaooke Blues
TTITLE8=Indian Express
TTITLE9=Music To My Ears
TTITLE10=Black Whistle
TTITLE11=Mad Dog Special
EXTD=
EXTT0=
EXTT1=
EXTT2=
EXTT3=
EXTT4=
EXTT5=
EXTT6=
EXTT7=
EXTT8=
EXTT9=
EXTT10=
EXTT11=
PLAYORDER=
